<svg width="22" height="22" viewBox="0 0 22 22" fill="none" xmlns="http://www.w3.org/2000/svg">
<g opacity="0.5" clip-path="url(#clip0_12_1949)">
<path d="M2.28102 5.81169C2.28102 5.32899 2.6789 4.93723 3.14849 4.93723H18.9029C19.3821 4.93723 19.7703 5.32637 19.7703 5.81169V18.0542C19.7703 18.5369 19.3724 18.9287 18.9029 18.9287H3.14849C3.03405 18.9284 2.92078 18.9056 2.81518 18.8615C2.70958 18.8174 2.61373 18.7529 2.53313 18.6716C2.45253 18.5904 2.38877 18.494 2.34551 18.388C2.30225 18.2821 2.28033 18.1686 2.28102 18.0542V5.81169ZM4.02995 6.68616V17.1797H18.0214V6.68616H4.02995ZM12.7746 14.5563C13.4704 14.5563 14.1376 14.28 14.6296 13.788C15.1216 13.296 15.398 12.6287 15.398 11.9329C15.398 11.2372 15.1216 10.5699 14.6296 10.0779C14.1376 9.58595 13.4704 9.30955 12.7746 9.30955C12.0788 9.30955 11.4116 9.58595 10.9196 10.0779C10.4276 10.5699 10.1512 11.2372 10.1512 11.9329C10.1512 12.6287 10.4276 13.296 10.9196 13.788C11.4116 14.28 12.0788 14.5563 12.7746 14.5563ZM12.7746 16.3053C11.615 16.3053 10.5029 15.8446 9.6829 15.0246C8.86293 14.2047 8.40228 13.0926 8.40228 11.9329C8.40228 10.7733 8.86293 9.66122 9.6829 8.84125C10.5029 8.02128 11.615 7.56062 12.7746 7.56062C13.9342 7.56062 15.0463 8.02128 15.8663 8.84125C16.6863 9.66122 17.1469 10.7733 17.1469 11.9329C17.1469 13.0926 16.6863 14.2047 15.8663 15.0246C15.0463 15.8446 13.9342 16.3053 12.7746 16.3053ZM4.02995 2.31383H9.27674V4.06276H4.02995V2.31383Z" fill="black"/>
</g>
<defs>
<clipPath id="clip0_12_1949">
<rect width="20.9872" height="20.9872" fill="white" transform="translate(0.532104 0.564903)"/>
</clipPath>
</defs>
</svg>
