<svg width="14" height="14" viewBox="0 0 14 14" fill="none" xmlns="http://www.w3.org/2000/svg">
<g clip-path="url(#clip0_12_1443)">
<path d="M6.97147 12.2038C4.15416 12.2038 1.87042 9.92003 1.87042 7.10272C1.87042 4.28542 4.15416 2.00168 6.97147 2.00168C9.78878 2.00168 12.0725 4.28542 12.0725 7.10272C12.0725 9.92003 9.78878 12.2038 6.97147 12.2038ZM6.97147 11.1836C8.05377 11.1836 9.09175 10.7536 9.85706 9.98831C10.6224 9.22301 11.0523 8.18503 11.0523 7.10272C11.0523 6.02042 10.6224 4.98244 9.85706 4.21714C9.09175 3.45183 8.05377 3.02189 6.97147 3.02189C5.88916 3.02189 4.85119 3.45183 4.08588 4.21714C3.32058 4.98244 2.89063 6.02042 2.89063 7.10272C2.89063 8.18503 3.32058 9.22301 4.08588 9.98831C4.85119 10.7536 5.88916 11.1836 6.97147 11.1836ZM7.48157 7.10272H9.52199V8.12293H6.46136V4.5522H7.48157V7.10272Z" fill="#D52A2A"/>
</g>
<defs>
<clipPath id="clip0_12_1443">
<rect width="12.2425" height="12.2425" fill="white" transform="translate(0.85022 0.981461)"/>
</clipPath>
</defs>
</svg>
