<svg width="22" height="22" viewBox="0 0 22 22" fill="none" xmlns="http://www.w3.org/2000/svg">
<g clip-path="url(#clip0_12_1479)">
<path d="M4.51709 13.8966V15.6455C4.51709 16.5672 5.34783 17.3944 6.26602 17.3944H8.88941V19.1434H6.26602C5.33833 19.1434 4.44863 18.7748 3.79266 18.1189C3.13668 17.4629 2.76816 16.5732 2.76816 15.6455V13.8966H4.51709ZM15.8851 9.52424L19.7328 19.1434H17.8483L16.7981 16.52H13.2215L12.173 19.1434H10.2894L14.1362 9.52424H15.8851ZM15.0107 12.0471L13.9202 14.771H16.0994L15.0107 12.0471ZM2.76816 3.40298H8.01495C8.5213 3.40316 9.01677 3.54988 9.44158 3.82541C9.8664 4.10095 10.2024 4.49354 10.409 4.95581C10.6157 5.41808 10.6841 5.93026 10.6061 6.43057C10.5281 6.93087 10.3069 7.3979 9.96938 7.77531C10.3069 8.15272 10.5281 8.61975 10.6061 9.12005C10.6841 9.62036 10.6157 10.1325 10.409 10.5948C10.2024 11.0571 9.8664 11.4497 9.44158 11.7252C9.01677 12.0007 8.5213 12.1475 8.01495 12.1476H2.76816V3.40298ZM8.01495 8.64978H4.51709V10.3987H8.01495C8.24687 10.3987 8.46929 10.3066 8.63329 10.1426C8.79728 9.97859 8.88941 9.75616 8.88941 9.52424C8.88941 9.29232 8.79728 9.06989 8.63329 8.9059C8.46929 8.74191 8.24687 8.64978 8.01495 8.64978ZM15.0107 3.40298C15.9384 3.40298 16.8281 3.77151 17.484 4.42748C18.14 5.08346 18.5085 5.97315 18.5085 6.90084V8.64978H16.7596V6.90084C16.7596 6.437 16.5753 5.99215 16.2473 5.66416C15.9194 5.33618 15.4745 5.15191 15.0107 5.15191H12.3873V3.40298H15.0107ZM8.01495 5.15191H4.51709V6.90084H8.01495C8.24687 6.90084 8.46929 6.80871 8.63329 6.64472C8.79728 6.48073 8.88941 6.2583 8.88941 6.02638C8.88941 5.79446 8.79728 5.57203 8.63329 5.40804C8.46929 5.24405 8.24687 5.15191 8.01495 5.15191Z" fill="#7B7B7D"/>
</g>
<defs>
<clipPath id="clip0_12_1479">
<rect width="20.9872" height="20.9872" fill="white" transform="translate(0.144775 0.779572)"/>
</clipPath>
</defs>
</svg>
