<svg width="21" height="22" viewBox="0 0 21 22" fill="none" xmlns="http://www.w3.org/2000/svg">
<path d="M8.29069 18.9451V16.2713C8.29069 15.5887 8.81449 15.0354 9.46063 15.0354H11.8226C12.1329 15.0354 12.4305 15.1656 12.6499 15.3974C12.8693 15.6291 12.9925 15.9435 12.9925 16.2713V18.9451C12.9906 19.2289 13.0959 19.5018 13.2852 19.7032C13.4744 19.9045 13.732 20.0178 14.0006 20.0178H15.612C16.3646 20.0199 17.0871 19.7055 17.6199 19.144C18.1528 18.5826 18.4523 17.8203 18.4523 17.0252V9.4078C18.4523 8.76559 18.1828 8.15642 17.7164 7.7444L12.2346 3.11953C11.2811 2.30863 9.91481 2.33481 8.98971 3.18171L3.633 7.7444C3.14463 8.14428 2.85274 8.75525 2.83832 9.4078V17.0175C2.83832 18.6745 4.10993 20.0178 5.67855 20.0178H7.25319C7.81113 20.0178 8.26457 19.5423 8.26861 18.9529L8.29069 18.9451Z" fill="#495ECA"/>
</svg>
