<svg width="22" height="22" viewBox="0 0 22 22" fill="none" xmlns="http://www.w3.org/2000/svg">
<g clip-path="url(#clip0_12_1365)">
<path d="M19.8331 17.719H2.34378V15.97H3.21825V9.8759C3.21825 5.51407 6.74234 1.97861 11.0884 1.97861C15.4345 1.97861 18.9586 5.51407 18.9586 9.8759V15.97H19.8331V17.719ZM4.96718 15.97H17.2097V9.8759C17.2097 6.48035 14.4691 3.72754 11.0884 3.72754C7.70775 3.72754 4.96718 6.48035 4.96718 9.8759V15.97ZM8.90227 18.5934H13.2746C13.2746 19.1733 13.0443 19.7293 12.6343 20.1393C12.2243 20.5493 11.6682 20.7796 11.0884 20.7796C10.5086 20.7796 9.95257 20.5493 9.54258 20.1393C9.1326 19.7293 8.90227 19.1733 8.90227 18.5934Z" fill="black"/>
</g>
<defs>
<clipPath id="clip0_12_1365">
<rect width="20.9872" height="20.9872" fill="white" transform="translate(0.594879 0.229675)"/>
</clipPath>
</defs>
</svg>
