<svg width="22" height="22" viewBox="0 0 22 22" fill="none" xmlns="http://www.w3.org/2000/svg">
<g clip-path="url(#clip0_12_1474)">
<path d="M11.8324 18.5806V20.3295H10.0834V18.5806H3.08772C2.8558 18.5806 2.63338 18.4885 2.46938 18.3245C2.30539 18.1605 2.21326 17.938 2.21326 17.7061V3.71468C2.21326 3.48276 2.30539 3.26033 2.46938 3.09634C2.63338 2.93234 2.8558 2.84021 3.08772 2.84021H8.33451C8.83085 2.83962 9.32159 2.94494 9.77399 3.14911C10.2264 3.35329 10.63 3.65164 10.9579 4.02424C11.2858 3.65164 11.6894 3.35329 12.1418 3.14911C12.5942 2.94494 13.085 2.83962 13.5813 2.84021H18.8281C19.06 2.84021 19.2824 2.93234 19.4464 3.09634C19.6104 3.26033 19.7026 3.48276 19.7026 3.71468V17.7061C19.7026 17.938 19.6104 18.1605 19.4464 18.3245C19.2824 18.4885 19.06 18.5806 18.8281 18.5806H11.8324ZM17.9536 16.8317V4.58914H13.5813C13.1175 4.58914 12.6726 4.7734 12.3446 5.10139C12.0166 5.42938 11.8324 5.87423 11.8324 6.33807V16.8317H17.9536ZM10.0834 16.8317V6.33807C10.0834 5.87423 9.89918 5.42938 9.57119 5.10139C9.2432 4.7734 8.79836 4.58914 8.33451 4.58914H3.96219V16.8317H10.0834Z" fill="#7B7B7D"/>
</g>
<defs>
<clipPath id="clip0_12_1474">
<rect width="20.9872" height="20.9872" fill="white" transform="translate(0.464325 0.216827)"/>
</clipPath>
</defs>
</svg>
